<?xml version="1.0" encoding="UTF-8" standalone="no"?>
<!-- Created with Inkscape (http://www.inkscape.org/) -->

<svg
   xmlns:dc="http://purl.org/dc/elements/1.1/"
   xmlns:cc="http://creativecommons.org/ns#"
   xmlns:rdf="http://www.w3.org/1999/02/22-rdf-syntax-ns#"
   xmlns:svg="http://www.w3.org/2000/svg"
   xmlns="http://www.w3.org/2000/svg"
   xmlns:xlink="http://www.w3.org/1999/xlink"
   xmlns:sodipodi="http://sodipodi.sourceforge.net/DTD/sodipodi-0.dtd"
   xmlns:inkscape="http://www.inkscape.org/namespaces/inkscape"
   width="210mm"
   height="297mm"
   id="svg2"
   version="1.1"
   inkscape:version="0.48.1 "
   sodipodi:docname="Movie.svg">
  <defs
     id="defs4">
    <linearGradient
       id="linearGradient3135">
      <stop
         style="stop-color:#666666;stop-opacity:0.75;"
         offset="0"
         id="stop3137" />
      <stop
         style="stop-color:#c4c4c4;stop-opacity:0.75;"
         offset="1"
         id="stop3139" />
    </linearGradient>
    <linearGradient
       id="linearGradient3127">
      <stop
         style="stop-color:#2e2e2e;stop-opacity:1;"
         offset="0"
         id="stop3129" />
      <stop
         style="stop-color:#787878;stop-opacity:1;"
         offset="1"
         id="stop3131" />
    </linearGradient>
    <linearGradient
       inkscape:collect="always"
       xlink:href="#linearGradient3127"
       id="linearGradient3133"
       x1="160.11534"
       y1="1012.2993"
       x2="33.456097"
       y2="836.06842"
       gradientUnits="userSpaceOnUse" />
    <linearGradient
       inkscape:collect="always"
       xlink:href="#linearGradient3135"
       id="linearGradient3141"
       x1="136.42857"
       y1="909.505"
       x2="50.000004"
       y2="828.79077"
       gradientUnits="userSpaceOnUse" />
    <linearGradient
       inkscape:collect="always"
       xlink:href="#linearGradient3135"
       id="linearGradient3917"
       x1="149.99107"
       y1="1031.9967"
       x2="46.900166"
       y2="940.56824"
       gradientUnits="userSpaceOnUse" />
    <linearGradient
       inkscape:collect="always"
       xlink:href="#linearGradient3135"
       id="linearGradient3962"
       gradientUnits="userSpaceOnUse"
       x1="145.51994"
       y1="917.58624"
       x2="44.949242"
       y2="821.71973" />
  </defs>
  <sodipodi:namedview
     id="base"
     pagecolor="#ffffff"
     bordercolor="#666666"
     borderopacity="1.0"
     inkscape:pageopacity="0.0"
     inkscape:pageshadow="2"
     inkscape:zoom="0.98994949"
     inkscape:cx="11.993844"
     inkscape:cy="207.23333"
     inkscape:document-units="px"
     inkscape:current-layer="layer1"
     showgrid="false"
     inkscape:window-width="1366"
     inkscape:window-height="706"
     inkscape:window-x="-8"
     inkscape:window-y="-8"
     inkscape:window-maximized="1" />
  <metadata
     id="metadata7">
    <rdf:RDF>
      <cc:Work
         rdf:about="">
        <dc:format>image/svg+xml</dc:format>
        <dc:type
           rdf:resource="http://purl.org/dc/dcmitype/StillImage" />
        <dc:title></dc:title>
      </cc:Work>
    </rdf:RDF>
  </metadata>
  <g
     inkscape:label="Ebene 1"
     inkscape:groupmode="layer"
     id="layer1">
    <rect
       y="810.93573"
       x="156.57364"
       height="232.33508"
       width="27.274122"
       id="rect3960"
       style="color:#000000;fill:#ffffff;fill-opacity:0.75;fill-rule:nonzero;stroke:none;stroke-width:12.19999981;marker:none;visibility:visible;display:inline;overflow:visible;enable-background:accumulate" />
    <rect
       style="color:#000000;fill:#ffffff;fill-opacity:0.75;fill-rule:nonzero;stroke:none;stroke-width:12.19999981;marker:none;visibility:visible;display:inline;overflow:visible;enable-background:accumulate"
       id="rect3947"
       width="27.274122"
       height="232.33508"
       x="10.101525"
       y="810.93573" />
    <path
       style="opacity:1;color:#000000;fill:url(#linearGradient3133);fill-opacity:1;fill-rule:nonzero;stroke:none;stroke-width:12.19999981000000000;marker:none;visibility:visible;display:inline;overflow:visible;enable-background:accumulate"
       d="M 17.125,802.36223 C 7.62786,802.36223 0,809.99009 0,819.48723 L 0,1035.206 c 0,9.4972 7.62786,17.1562 17.125,17.1562 l 159.71875,0 c 9.49715,0 17.15625,-7.659 17.15625,-17.1562 l 0,-215.71877 c 0,-9.49714 -7.6591,-17.125 -17.15625,-17.125 l -159.71875,0 z m -1.40625,16.0625 17.84375,0 0,21.0625 -17.84375,0 0,-21.0625 z m 145.6875,0 17.875,0 0,21.0625 -17.875,0 0,-21.0625 z m -118.5625,1.4375 106.90625,0 0,100 -106.90625,0 0,-100 z m -27.125,37.875 17.84375,0 0,21.0625 -17.84375,0 0,-21.0625 z m 145.6875,0 17.875,0 0,21.0625 -17.875,0 0,-21.0625 z m -145.6875,39.3125 17.84375,0 0,21.0625 -17.84375,0 0,-21.0625 z m 145.6875,0 17.875,0 0,21.0625 -17.875,0 0,-21.0625 z m -118.5625,39.21875 106.90625,0 0,100.00002 -106.90625,0 0,-100.00002 z m -27.125,0.0937 17.84375,0 0,21.0625 -17.84375,0 0,-21.0625 z m 145.6875,0 17.875,0 0,21.0625 -17.875,0 0,-21.0625 z m -145.6875,39.3125 17.84375,0 0,21.09375 -17.84375,0 0,-21.09375 z m 145.6875,0 17.875,0 0,21.09375 -17.875,0 0,-21.09375 z m -145.6875,39.31252 17.84375,0 0,21.0937 -17.84375,0 0,-21.0937 z m 145.6875,0 17.875,0 0,21.0937 -17.875,0 0,-21.0937 z"
       id="rect2996"
       inkscape:connector-curvature="0"
       inkscape:export-filename="C:\Users\Patrick\Documents\Visual Studio 2010\Projects\Words\Words\Artwork\Movie.png"
       inkscape:export-xdpi="45"
       inkscape:export-ydpi="45" />
    <path
       style="opacity:1;color:#000000;fill:url(#linearGradient3962);fill-opacity:1;fill-rule:nonzero;stroke:none;stroke-width:12.19999981000000000;marker:none;visibility:visible;display:inline;overflow:visible;enable-background:accumulate"
       d="m 42.84822,819.85387 106.90909,0 0,100 -106.90909,0 z"
       id="rect3087"
       inkscape:connector-curvature="0"
       inkscape:export-filename="C:\Users\Patrick\Desktop\movie.png"
       inkscape:export-xdpi="45"
       inkscape:export-ydpi="45" />
    <path
       style="opacity:1;color:#000000;fill:url(#linearGradient3917);fill-opacity:1;fill-rule:nonzero;stroke:none;stroke-width:12.19999981000000000;marker:none;visibility:visible;display:inline;overflow:visible;enable-background:accumulate"
       d="m 42.84822,936.28246 106.90909,0 0,100.00004 -106.90909,0 z"
       id="rect3109"
       inkscape:connector-curvature="0"
       inkscape:export-filename="C:\Users\Patrick\Desktop\movie.png"
       inkscape:export-xdpi="45"
       inkscape:export-ydpi="45" />
  </g>
</svg>
