<?xml version="1.0" encoding="UTF-8" standalone="no"?>
<!-- Created with Inkscape (http://www.inkscape.org/) -->

<svg
   xmlns:dc="http://purl.org/dc/elements/1.1/"
   xmlns:cc="http://creativecommons.org/ns#"
   xmlns:rdf="http://www.w3.org/1999/02/22-rdf-syntax-ns#"
   xmlns:svg="http://www.w3.org/2000/svg"
   xmlns="http://www.w3.org/2000/svg"
   xmlns:sodipodi="http://sodipodi.sourceforge.net/DTD/sodipodi-0.dtd"
   xmlns:inkscape="http://www.inkscape.org/namespaces/inkscape"
   width="400"
   height="100"
   id="svg2"
   version="1.1"
   inkscape:version="0.48.1 "
   sodipodi:docname="Viewer.svg">
  <defs
     id="defs4" />
  <sodipodi:namedview
     id="base"
     pagecolor="#ffffff"
     bordercolor="#666666"
     borderopacity="1.0"
     inkscape:pageopacity="0.0"
     inkscape:pageshadow="2"
     inkscape:zoom="4"
     inkscape:cx="59.853181"
     inkscape:cy="37.862384"
     inkscape:document-units="px"
     inkscape:current-layer="layer1"
     showgrid="false"
     inkscape:window-width="1366"
     inkscape:window-height="706"
     inkscape:window-x="-8"
     inkscape:window-y="-8"
     inkscape:window-maximized="1" />
  <metadata
     id="metadata7">
    <rdf:RDF>
      <cc:Work
         rdf:about="">
        <dc:format>image/svg+xml</dc:format>
        <dc:type
           rdf:resource="http://purl.org/dc/dcmitype/StillImage" />
        <dc:title></dc:title>
      </cc:Work>
    </rdf:RDF>
  </metadata>
  <g
     inkscape:label="Ebene 1"
     inkscape:groupmode="layer"
     id="layer1"
     transform="translate(0,-952.36218)">
    <g
       id="g3962"
       transform="translate(-64,0)"
       inkscape:export-filename="C:\Users\Patrick\Documents\Visual Studio 2010\Projects\Words\Words\Artwork\Viewer_svg.png"
       inkscape:export-xdpi="90"
       inkscape:export-ydpi="90">
      <rect
         inkscape:export-ydpi="90"
         inkscape:export-xdpi="90"
         inkscape:export-filename="C:\Users\Patrick\Desktop\TestIcon.png"
         ry="0"
         rx="0"
         y="988.36218"
         x="64"
         height="64"
         width="64"
         id="rect3960"
         style="color:#000000;fill:#ff0000;fill-opacity:0;fill-rule:nonzero;stroke:none;stroke-width:6;marker:none;visibility:visible;display:inline;overflow:visible;enable-background:accumulate" />
      <path
         sodipodi:nodetypes="sssssssssssssssss"
         inkscape:connector-curvature="0"
         d="m 114,1022.3594 0,19.4844 c 0,0.3355 -0.16441,0.5312 -0.5,0.5312 l -39,0 c -0.335592,0 -0.5,-0.1957 -0.5,-0.5312 l 0,-38.9688 c 0,-0.3356 0.164408,-0.5 0.5,-0.5 l 19.5,0 c 3.936488,0 3.940523,-6 0,-6 l -19.5,0 c -3.555809,0 -6.5,2.94419 -6.5,6.5 l 0,38.9688 c 0,3.5558 2.944191,6.5312 6.5,6.5312 l 39,0 c 3.55581,0 6.5,-2.9754 6.5,-6.5312 l 0,-19.4844 c 0,-4.0288 -6,-4.0097 -6,0 z"
         style="font-size:medium;font-style:normal;font-variant:normal;font-weight:normal;font-stretch:normal;text-indent:0;text-align:start;text-decoration:none;line-height:normal;letter-spacing:normal;word-spacing:normal;text-transform:none;direction:ltr;block-progression:tb;writing-mode:lr-tb;text-anchor:start;baseline-shift:baseline;color:#000000;fill:#525252;fill-opacity:1;stroke:none;stroke-width:6;marker:none;visibility:visible;display:inline;overflow:visible;enable-background:accumulate;font-family:Sans;-inkscape-font-specification:Sans"
         id="path3965" />
      <path
         sodipodi:nodetypes="sssccssssccss"
         inkscape:connector-curvature="0"
         id="path3922"
         d="m 100,992.36218 26,0 c 1.27699,0 1.22641,3 0,3 l -2,0 0,12.00002 1,0 c 0.97698,0 0.98635,2 0,2 l -24,0 c -0.96956,0 -0.97562,-2 0,-2 l 1,0 0,-12.00002 -2,0 c -1.199676,0 -1.250288,-3 0,-3 z"
         style="fill:#525252;fill-opacity:1;stroke:none" />
      <path
         sodipodi:nodetypes="ccccc"
         inkscape:connector-curvature="0"
         id="path3946"
         d="m 112,991.36218 2,0 0,-1.26517 -2,0 z"
         style="fill:#525252;fill-opacity:1;stroke:none" />
      <path
         sodipodi:nodetypes="cccccccccc"
         inkscape:connector-curvature="0"
         id="path3948"
         d="m 112,1010.3622 0,3 -4,4 2,0 3,-3 3,3 2,0 -4,-4 0,-3 z"
         style="fill:#525252;fill-opacity:1;stroke:none" />
      <path
         id="path3952"
         style="font-size:medium;font-style:normal;font-variant:normal;font-weight:normal;font-stretch:normal;text-indent:0;text-align:start;text-decoration:none;line-height:normal;letter-spacing:normal;word-spacing:normal;text-transform:none;direction:ltr;block-progression:tb;writing-mode:lr-tb;text-anchor:start;baseline-shift:baseline;color:#000000;fill:#525252;fill-opacity:1;stroke:none;stroke-width:6;marker:none;visibility:visible;display:inline;overflow:visible;enable-background:accumulate;font-family:Sans;-inkscape-font-specification:Sans"
         d="m 114,1022.3594 0,19.4844 c 0,0.3355 -0.16441,0.5312 -0.5,0.5312 l -39,0 c -0.335592,0 -0.5,-0.1957 -0.5,-0.5312 l 0,-38.9688 c 0,-0.3356 0.164408,-0.5 0.5,-0.5 l 19.5,0 c 3.936488,0 3.940523,-6 0,-6 l -19.5,0 c -3.555809,0 -6.5,2.94419 -6.5,6.5 l 0,38.9688 c 0,3.5558 2.944191,6.5312 6.5,6.5312 l 39,0 c 3.55581,0 6.5,-2.9754 6.5,-6.5312 l 0,-19.4844 c 0,-4.0288 -6,-4.0097 -6,0 z"
         inkscape:connector-curvature="0"
         sodipodi:nodetypes="sssssssssssssssss" />
      <path
         sodipodi:nodetypes="sssssssssssssssss"
         inkscape:connector-curvature="0"
         d="m 114,1022.3594 0,19.4844 c 0,0.3355 -0.16441,0.5312 -0.5,0.5312 l -39,0 c -0.335592,0 -0.5,-0.1957 -0.5,-0.5312 l 0,-38.9688 c 0,-0.3356 0.164408,-0.5 0.5,-0.5 l 19.5,0 c 3.936488,0 3.940523,-6 0,-6 l -19.5,0 c -3.555809,0 -6.5,2.94419 -6.5,6.5 l 0,38.9688 c 0,3.5558 2.944191,6.5312 6.5,6.5312 l 39,0 c 3.55581,0 6.5,-2.9754 6.5,-6.5312 l 0,-19.4844 c 0,-4.0288 -6,-4.0097 -6,0 z"
         style="font-size:medium;font-style:normal;font-variant:normal;font-weight:normal;font-stretch:normal;text-indent:0;text-align:start;text-decoration:none;line-height:normal;letter-spacing:normal;word-spacing:normal;text-transform:none;direction:ltr;block-progression:tb;writing-mode:lr-tb;text-anchor:start;baseline-shift:baseline;color:#000000;fill:#525252;fill-opacity:1;stroke:none;stroke-width:6;marker:none;visibility:visible;display:inline;overflow:visible;enable-background:accumulate;font-family:Sans;-inkscape-font-specification:Sans"
         id="path3954" />
      <path
         id="path3956"
         style="font-size:medium;font-style:normal;font-variant:normal;font-weight:normal;font-stretch:normal;text-indent:0;text-align:start;text-decoration:none;line-height:normal;letter-spacing:normal;word-spacing:normal;text-transform:none;direction:ltr;block-progression:tb;writing-mode:lr-tb;text-anchor:start;baseline-shift:baseline;color:#000000;fill:#525252;fill-opacity:1;stroke:none;stroke-width:6;marker:none;visibility:visible;display:inline;overflow:visible;enable-background:accumulate;font-family:Sans;-inkscape-font-specification:Sans"
         d="m 114,1022.3594 0,19.4844 c 0,0.3355 -0.16441,0.5312 -0.5,0.5312 l -39,0 c -0.335592,0 -0.5,-0.1957 -0.5,-0.5312 l 0,-38.9688 c 0,-0.3356 0.164408,-0.5 0.5,-0.5 l 19.5,0 c 3.936488,0 3.940523,-6 0,-6 l -19.5,0 c -3.555809,0 -6.5,2.94419 -6.5,6.5 l 0,38.9688 c 0,3.5558 2.944191,6.5312 6.5,6.5312 l 39,0 c 3.55581,0 6.5,-2.9754 6.5,-6.5312 l 0,-19.4844 c 0,-4.0288 -6,-4.0097 -6,0 z"
         inkscape:connector-curvature="0"
         sodipodi:nodetypes="sssssssssssssssss" />
      <path
         sodipodi:nodetypes="sssssssssssssssss"
         inkscape:connector-curvature="0"
         d="m 114,1022.3594 0,18.9541 c 0,0.3355 -0.69474,1.0615 -1.03033,1.0615 l -37.93934,0 C 74.694738,1042.375 74,1041.649 74,1041.3135 l 0,-37.9082 c 0,-0.3356 0.694738,-1.0303 1.03033,-1.0303 l 18.96967,0 c 3.936488,0 3.940523,-6 0,-6 l -19.5,0 c -3.555809,0 -6.5,2.94419 -6.5,6.5 l 0,38.9688 c 0,3.5558 2.944191,6.5312 6.5,6.5312 l 39,0 c 3.55581,0 6.5,-2.9754 6.5,-6.5312 l 0,-19.4844 c 0,-4.0288 -6,-4.0097 -6,0 z"
         style="font-size:medium;font-style:normal;font-variant:normal;font-weight:normal;font-stretch:normal;text-indent:0;text-align:start;text-decoration:none;line-height:normal;letter-spacing:normal;word-spacing:normal;text-transform:none;direction:ltr;block-progression:tb;writing-mode:lr-tb;text-anchor:start;baseline-shift:baseline;color:#000000;fill:#525252;fill-opacity:1;stroke:none;stroke-width:6;marker:none;visibility:visible;display:inline;overflow:visible;enable-background:accumulate;font-family:Sans;-inkscape-font-specification:Sans"
         id="path3958" />
    </g>
  </g>
</svg>
